<svg
    width="460"
    height="230"
    viewBox="0 0 460 230"
    xmlns="http://www.w3.org/2000/svg"
    xmlns:xlink="http://www.w3.org/1999/xlink"
>

    <!-- <rect
        x="0"
        y="0"
        width="460"
        height="230"
        fill="white"
    /> -->
    <g transform="translate(-476 -142)">
        <path
            d="M156.194 113.995C156.194 114.453 156.194 114.91 156.194 115.367 156.012 121.633 154.527 127.791 151.835 133.451L151.813 133.505C150.591 136.032 147.553 137.09 145.027 135.869 144.852 135.785 144.682 135.69 144.518 135.586L143.809 135.129C141.968 133.96 141.321 131.581 142.318 129.641 144.729 124.781 145.982 119.43 145.977 114.005 145.977 113.639 145.977 113.273 145.977 112.912 145.358 93.4072 129.045 78.0969 109.541 78.7157 106.613 78.8085 103.708 79.265 100.893 80.0749 98.6834 80.7303 96.2934 80.0639 94.7417 78.3599L94.7096 78.3279C92.958 76.3805 93.1172 73.3818 95.0645 71.6302 95.5708 71.1752 96.1685 70.8344 96.818 70.6309 120.787 62.9852 146.417 76.2187 154.062 100.188 155.487 104.655 156.214 109.316 156.217 114.005Z"
            fill="black"
            transform="matrix(1 0 0 1.00177 477.177 143)"
        />
        <path
            d="M126.655 149.691C128.402 151.628 128.249 154.615 126.312 156.363 125.805 156.819 125.206 157.162 124.555 157.365 100.585 165.018 74.95 151.791 67.2969 127.821 65.8696 123.351 65.1415 118.688 65.1383 113.995 65.1383 113.538 65.1383 113.081 65.1383 112.623 65.415 106.764 66.7152 100.998 68.9799 95.5877 69.9806 93.2686 72.6716 92.1993 74.9907 93.2 75.5825 93.4552 76.1135 93.8325 76.5489 94.3072L76.5489 94.3072C78.2099 96.1626 78.6777 98.7987 77.7562 101.112 76.1533 105.213 75.3328 109.579 75.3369 113.982 75.3369 114.348 75.3369 114.714 75.3369 115.075 75.9557 134.579 92.2684 149.889 111.773 149.271 114.679 149.179 117.562 148.728 120.357 147.93 122.605 147.269 125.033 147.947 126.613 149.677Z"
            fill="black"
            transform="matrix(1 0 0 1.00177 477.177 143)"
        />
        <path
            d="M135.49 110.392C133.487 96.6707 120.74 87.1714 107.019 89.1745 106.299 89.2792 105.584 89.4155 104.876 89.5829 102.451 90.1546 100.126 91.0889 97.9796 92.3544 95.0097 94.0968 92.4303 96.432 90.4015 99.2144L90.8086 99.6717 90.1866 99.5254C82.1951 110.842 84.8906 126.494 96.207 134.486 100.44 137.475 105.494 139.08 110.675 139.08 112.623 139.081 114.564 138.855 116.461 138.408 118.887 137.835 121.213 136.901 123.362 135.637 126.331 133.893 128.91 131.558 130.94 128.777L130.533 128.319 131.155 128.47C134.158 124.236 135.767 119.173 135.76 113.982 135.758 112.78 135.668 111.58 135.49 110.392ZM125.53 113.995C125.529 122.204 118.873 128.858 110.664 128.857 102.456 128.856 95.8018 122.201 95.8027 113.992 95.8031 111.581 96.3899 109.205 97.5131 107.071 98.5042 105.191 99.8858 103.544 101.565 102.242 104.17 100.226 107.371 99.1316 110.666 99.1321 116.423 99.1234 121.664 102.447 124.112 107.657 125.045 109.639 125.53 111.804 125.53 113.995Z"
            fill="#64a19d"
            transform="matrix(1 0 0 1.00177 477.177 143)"
        />
        <path
            d="M265.255 121.139 265.255 121.139C265.255 123.96 262.968 126.248 260.146 126.248L199.138 126.248C195.953 126.248 193.371 123.665 193.371 120.481L193.371 109.985C193.371 99.6818 201.723 91.3299 212.025 91.3299L238.834 91.3299C243.277 91.3299 246.879 87.7284 246.879 83.2854 246.882 78.4738 242.983 74.5713 238.171 74.5686 238.17 74.5686 238.168 74.5686 238.167 74.5686L186.136 74.5686C183.314 74.5713 181.025 72.286 181.023 69.4647 181.023 69.4633 181.023 69.4615 181.023 69.4601 181.023 66.6361 183.312 64.3471 186.136 64.3471L238.469 64.3471C248.759 64.3471 257.1 72.6889 257.1 82.979 257.1 93.2361 248.785 101.551 238.528 101.551L211.289 101.551C207.046 101.551 203.606 104.991 203.606 109.235L203.606 116.026 260.146 116.026C262.968 116.029 265.255 118.317 265.255 121.139Z"
            fill="white"
            transform="matrix(1 0 0 1.00177 477.177 143)"
        />
        <path
            d="M279.967 91.3299 279.967 83.729C279.967 78.6773 284.062 74.5823 289.114 74.5823L324.077 74.5823C326.899 74.5823 329.186 72.2952 329.186 69.4739 329.186 66.6516 326.899 64.3636 324.077 64.3608L289.951 64.3608C278.795 64.3608 269.75 73.4051 269.75 84.5614L269.75 106.6C269.75 117.461 278.555 126.266 289.416 126.266L316.019 126.266C325.667 126.266 333.489 118.444 333.489 108.796L333.489 108.663C333.489 99.1019 325.74 91.351 316.179 91.3482ZM316.033 116.026 289.329 116.026C284.159 116.026 279.967 111.835 279.967 106.664L279.967 101.551 316.019 101.551C320.025 101.551 323.272 104.799 323.272 108.805 323.272 112.793 320.039 116.026 316.051 116.026 316.04 116.026 316.029 116.026 316.019 116.026Z"
            fill="white"
            transform="matrix(1 0 0 1.00177 477.177 143)"
        />
        <path
            d="M400.905 64.3471C403.69 64.3471 405.936 66.835 405.428 69.5699 405.331 70.1484 405.083 70.6908 404.71 71.1431L401.715 74.5686 356.53 126.348C354.758 128.361 351.693 128.566 349.67 126.805L349.574 126.719C347.397 124.841 347.154 121.555 349.031 119.378 349.035 119.374 349.039 119.369 349.043 119.365L388.145 74.5457 342.544 74.5457C339.725 74.5457 337.439 72.2613 337.436 69.4418 337.448 66.6279 339.73 64.3522 342.544 64.3471Z"
            fill="white"
            transform="matrix(1 0 0 1.00177 477.177 143)"
        />
        <path
            d="M87.0218 87.7764 86.9441 87.845C84.9153 89.721 81.7497 89.5971 79.8737 87.5684 79.8659 87.5601 79.8586 87.5514 79.8508 87.5432L79.6862 87.3603C77.8417 85.3178 77.9972 82.1681 80.0337 80.3173L80.2167 80.1526C82.2605 78.3096 85.4102 78.4669 87.2597 80.5048L87.4243 80.6877C89.2651 82.7585 89.0849 85.9274 87.0218 87.7764Z"
            fill="black"
            transform="matrix(1 0 0 1.00177 477.177 143)"
        />
        <path
            d="M141.317 147.678 141.134 147.843C139.087 149.689 135.932 149.529 134.082 147.486L133.917 147.308C132.074 145.235 132.256 142.063 134.324 140.215L134.402 140.146C136.447 138.273 139.621 138.409 141.5 140.448L141.664 140.631C143.509 142.675 143.354 145.826 141.317 147.678Z"
            fill="black"
            transform="matrix(1 0 0 1.00177 477.177 143)"
        />
        <path
            d="M144.907 53.2019 137.987 29.0088C137.423 27.0293 135.359 25.8826 133.38 26.4476 132.852 26.5984 132.364 26.8639 131.95 27.2252L112.006 44.6543C109.77 46.6295 106.968 47.8492 103.998 48.1392 81.0445 50.2703 61.9507 64.3517 51.9076 83.976 50.654 86.4383 51.6337 89.4507 54.0964 90.7048 54.4458 90.8827 54.8149 91.0185 55.1958 91.1104 57.542 91.6871 59.9787 90.5886 61.1 88.4487 70.6707 69.9038 89.797 58.2568 110.666 58.2646 140.219 58.2646 164.801 82.8464 166.228 113.877 166.321 116.208 167.948 118.196 170.216 118.747 172.994 119.424 175.794 117.721 176.472 114.943 176.573 114.527 176.622 114.099 176.618 113.671 176.358 92.1303 165.208 72.8307 150.55 61.4796 147.832 59.3956 145.854 56.4938 144.907 53.2019Z"
            fill="white"
            transform="matrix(1 0 0 1.00177 477.177 143)"
        />
        <path
            d="M166.196 136.899C163.814 136.315 161.34 137.43 160.2 139.602 146.052 166.954 112.409 177.657 85.0571 163.508 66.5455 153.933 54.9196 134.833 54.9169 113.991L54.9169 113.954C54.9315 111.752 53.4333 109.828 51.2948 109.303L50.7826 109.18C48.1392 108.538 45.4759 110.161 44.8343 112.805 44.7447 113.174 44.6981 113.552 44.6954 113.931L44.6954 113.991C44.6755 135.275 54.9429 155.256 72.259 167.632 74.838 169.485 76.7153 172.156 77.587 175.21L84.1498 198.1C84.7553 200.217 86.9633 201.443 89.0808 200.837 89.6625 200.671 90.1985 200.374 90.6485 199.97L107.52 184.809C110.798 181.863 114.893 179.981 119.264 179.413 140.807 176.574 159.574 163.318 169.452 143.965 170.695 141.528 169.726 138.545 167.289 137.302 166.942 137.125 166.575 136.99 166.196 136.899Z"
            fill="white"
            transform="matrix(1 0 0 1.00177 477.177 143)"
        />
        <path
            d="M196.247 140.068C197.091 138.612 198.314 137.412 199.787 136.597 203.028 134.848 206.951 134.941 210.105 136.844 211.687 137.841 212.897 139.331 213.548 141.083L209.789 141.083C209.352 140.139 208.633 139.352 207.731 138.833 206.798 138.326 205.748 138.07 204.685 138.093 203.505 138.071 202.339 138.365 201.31 138.943 200.318 139.517 199.513 140.365 198.991 141.385 197.875 143.729 197.875 146.451 198.991 148.794 199.514 149.818 200.319 150.67 201.31 151.25 202.337 151.836 203.503 152.135 204.685 152.114 205.748 152.137 206.798 151.881 207.731 151.374 208.633 150.854 209.352 150.068 209.789 149.123L213.548 149.123C212.899 150.874 211.688 152.36 210.105 153.349 208.476 154.35 206.596 154.864 204.685 154.831 202.967 154.85 201.274 154.42 199.773 153.582 198.306 152.765 197.088 151.565 196.247 150.111 194.503 146.984 194.503 143.177 196.247 140.05Z"
            fill="#64a19d"
            transform="matrix(1 0 0 1.00177 477.177 143)"
        />
        <path
            d="M225.375 153.939C224.23 153.298 223.289 152.347 222.658 151.195 221.978 149.932 221.638 148.514 221.671 147.079 221.643 145.651 221.993 144.24 222.686 142.991 223.332 141.832 224.293 140.881 225.457 140.247 227.916 138.966 230.846 138.966 233.305 140.247 234.47 140.881 235.431 141.832 236.077 142.991 236.769 144.24 237.119 145.651 237.092 147.079 237.119 148.511 236.759 149.924 236.049 151.168 235.376 152.328 234.392 153.279 233.209 153.912 231.991 154.566 230.627 154.901 229.244 154.886 227.894 154.913 226.56 154.587 225.375 153.939ZM231.508 151.62C232.231 151.218 232.825 150.618 233.223 149.892 233.684 149.033 233.911 148.067 233.881 147.093 233.912 146.126 233.695 145.167 233.25 144.308 232.868 143.588 232.287 142.992 231.576 142.593 230.889 142.21 230.113 142.012 229.326 142.016 228.543 142.01 227.773 142.209 227.09 142.593 226.389 142.992 225.822 143.588 225.457 144.308 225.031 145.173 224.823 146.129 224.854 147.093 224.854 148.721 225.27 149.979 226.102 150.866 226.908 151.743 228.054 152.229 229.244 152.197 230.035 152.2 230.815 152.002 231.508 151.62Z"
            fill="#64a19d"
            transform="matrix(1 0 0 1.00177 477.177 143)"
        />
        <path
            d="M256.506 140.041C257.447 140.533 258.216 141.298 258.715 142.236 259.272 143.321 259.546 144.529 259.511 145.748L259.511 154.666 256.41 154.666 256.41 146.215C256.41 144.861 256.071 143.823 255.395 143.1 254.669 142.358 253.66 141.963 252.623 142.016 251.583 141.965 250.57 142.359 249.838 143.1 249.152 143.823 248.809 144.861 248.809 146.215L248.809 154.666 245.681 154.666 245.681 139.547 248.791 139.547 248.791 141.276C249.319 140.641 249.992 140.143 250.753 139.821 251.553 139.473 252.418 139.295 253.291 139.3 254.407 139.278 255.512 139.533 256.506 140.041Z"
            fill="#64a19d"
            transform="matrix(1 0 0 1.00177 477.177 143)"
        />
        <path
            d="M271.269 154.268C270.385 153.885 269.615 153.28 269.032 152.512 268.492 151.794 268.185 150.927 268.154 150.029L271.392 150.029C271.448 150.672 271.782 151.258 272.307 151.634 272.911 152.084 273.649 152.316 274.401 152.293 275.118 152.335 275.832 152.158 276.446 151.785 276.898 151.506 277.173 151.013 277.173 150.482 277.186 149.935 276.866 149.436 276.363 149.219 275.537 148.839 274.679 148.532 273.798 148.305 272.857 148.055 271.931 147.749 271.026 147.39 270.319 147.093 269.692 146.632 269.197 146.046 268.652 145.373 268.374 144.523 268.415 143.658 268.411 142.865 268.661 142.091 269.128 141.449 269.651 140.745 270.359 140.199 271.173 139.872 272.142 139.471 273.184 139.275 274.232 139.295 275.729 139.223 277.202 139.685 278.389 140.599 279.447 141.478 280.064 142.777 280.077 144.152L276.949 144.152C276.917 143.52 276.618 142.932 276.126 142.533 275.549 142.104 274.84 141.891 274.122 141.93 273.459 141.885 272.798 142.044 272.229 142.387 271.811 142.658 271.563 143.124 271.57 143.622 271.568 144.01 271.735 144.381 272.028 144.637 272.337 144.922 272.702 145.141 273.098 145.282 273.519 145.437 274.141 145.634 274.964 145.872 275.885 146.105 276.788 146.403 277.667 146.764 278.37 147.063 278.995 147.518 279.496 148.094 280.034 148.751 280.316 149.579 280.292 150.427 280.299 151.245 280.049 152.045 279.578 152.714 279.066 153.42 278.368 153.971 277.562 154.305 276.593 154.708 275.551 154.905 274.502 154.881 273.393 154.915 272.289 154.706 271.269 154.268Z"
            fill="#64a19d"
            transform="matrix(1 0 0 1.00177 477.177 143)"
        />
        <path
            d="M302.811 139.547 302.811 154.666 299.683 154.666 299.683 152.883C299.167 153.522 298.503 154.026 297.748 154.351 296.95 154.708 296.085 154.89 295.21 154.886 294.098 154.905 292.999 154.651 292.009 154.145 291.066 153.651 290.292 152.886 289.786 151.95 289.22 150.868 288.941 149.658 288.977 148.437L288.977 139.547 292.077 139.547 292.077 147.971C292.077 149.325 292.416 150.363 293.093 151.085 293.818 151.828 294.827 152.223 295.864 152.169 296.905 152.221 297.918 151.827 298.649 151.085 299.335 150.363 299.678 149.325 299.678 147.971L299.678 139.547Z"
            fill="#64a19d"
            transform="matrix(1 0 0 1.00177 477.177 143)"
        />
        <path
            d="M315.562 134.361 315.562 154.666 312.433 154.666 312.433 134.361Z"
            fill="#64a19d"
            transform="matrix(1 0 0 1.00177 477.177 143)"
        />
        <path
            d="M328.797 142.099 328.797 150.463C328.754 150.908 328.898 151.351 329.195 151.685 329.59 151.974 330.079 152.105 330.567 152.055L332.483 152.055 332.483 154.662 330.013 154.662C328.605 154.662 327.526 154.332 326.776 153.674 326.025 153.015 325.641 151.945 325.623 150.463L325.623 142.094 323.839 142.094 323.839 139.542 325.623 139.542 325.623 135.783 328.779 135.783 328.779 139.542 332.437 139.542 332.437 142.094Z"
            fill="#64a19d"
            transform="matrix(1 0 0 1.00177 477.177 143)"
        />
        <path
            d="M341.008 136.967C340.22 136.191 340.21 134.923 340.987 134.135 341.368 133.747 341.891 133.531 342.435 133.537 342.961 133.528 343.467 133.737 343.834 134.114 344.603 134.909 344.603 136.172 343.834 136.967 343.467 137.344 342.961 137.553 342.435 137.544 341.9 137.557 341.384 137.348 341.008 136.967ZM343.971 139.547 343.971 154.666 340.843 154.666 340.843 139.547Z"
            fill="#64a19d"
            transform="matrix(1 0 0 1.00177 477.177 143)"
        />
        <path
            d="M364.4 140.041C365.341 140.533 366.111 141.298 366.609 142.236 367.167 143.321 367.441 144.529 367.405 145.748L367.405 154.666 364.304 154.666 364.304 146.215C364.304 144.861 363.966 143.823 363.289 143.1 362.564 142.358 361.555 141.963 360.518 142.016 359.477 141.965 358.464 142.359 357.733 143.1 357.047 143.823 356.704 144.861 356.704 146.215L356.704 154.666 353.575 154.666 353.575 139.547 356.722 139.547 356.722 141.276C357.251 140.641 357.923 140.143 358.684 139.821 359.484 139.473 360.349 139.295 361.222 139.3 362.326 139.284 363.417 139.539 364.4 140.041Z"
            fill="#64a19d"
            transform="matrix(1 0 0 1.00177 477.177 143)"
        />
        <path
            d="M386.078 140C386.913 140.408 387.641 141.004 388.205 141.742L388.205 139.547 391.36 139.547 391.36 154.913C391.384 156.207 391.082 157.485 390.482 158.631 389.902 159.714 389.021 160.606 387.944 161.197 386.724 161.84 385.357 162.155 383.979 162.112 382.168 162.181 380.382 161.677 378.875 160.671 377.568 159.774 376.729 158.34 376.589 156.761L379.689 156.761C379.94 157.565 380.484 158.245 381.212 158.668 382.053 159.17 383.019 159.422 383.997 159.395 385.132 159.444 386.236 159.028 387.057 158.243 387.834 157.474 388.223 156.359 388.223 154.895L388.223 152.371C386.971 153.99 385.029 154.926 382.982 154.895 381.709 154.907 380.458 154.56 379.374 153.893 378.274 153.214 377.382 152.246 376.794 151.095 376.149 149.835 375.823 148.435 375.848 147.02 375.82 145.617 376.146 144.23 376.794 142.986 377.995 140.685 380.387 139.254 382.982 139.282 384.057 139.269 385.119 139.516 386.078 140ZM387.56 144.376C387.168 143.648 386.585 143.04 385.872 142.62 385.19 142.221 384.413 142.012 383.622 142.016 382.833 142.012 382.057 142.216 381.372 142.606 380.661 143.016 380.077 143.614 379.685 144.335 379.237 145.164 379.015 146.096 379.04 147.038 379.019 147.992 379.241 148.937 379.685 149.782 380.076 150.526 380.664 151.148 381.386 151.579 382.062 151.983 382.835 152.197 383.622 152.197 384.413 152.201 385.19 151.992 385.872 151.593 386.587 151.17 387.171 150.558 387.56 149.823 388.007 148.979 388.229 148.034 388.205 147.079 388.225 146.138 388.003 145.207 387.56 144.376Z"
            fill="#64a19d"
            transform="matrix(1 0 0 1.00177 477.177 143)"
        />
        <path
            d="M221.767 179.34C220.802 178.939 219.966 178.279 219.352 177.433 218.761 176.59 218.453 175.581 218.474 174.551L221.808 174.551C221.859 175.328 222.208 176.056 222.782 176.582 223.46 177.148 224.329 177.433 225.21 177.378 226.119 177.433 227.016 177.155 227.735 176.596 228.332 176.098 228.669 175.355 228.65 174.579 228.673 174.004 228.472 173.443 228.087 173.015 227.695 172.609 227.217 172.296 226.688 172.1 225.929 171.818 225.155 171.58 224.369 171.387 223.335 171.128 222.321 170.793 221.337 170.385 220.55 170.038 219.865 169.495 219.347 168.807 218.763 167.974 218.473 166.97 218.524 165.953 218.502 164.932 218.789 163.928 219.347 163.072 219.912 162.234 220.706 161.577 221.634 161.179 222.718 160.721 223.887 160.496 225.064 160.52 226.69 160.447 228.292 160.931 229.605 161.892 230.783 162.812 231.5 164.2 231.567 165.693L228.11 165.693C228.048 164.985 227.689 164.337 227.122 163.909 226.438 163.39 225.593 163.127 224.735 163.168 223.945 163.134 223.169 163.377 222.54 163.854 221.959 164.341 221.644 165.074 221.689 165.83 221.669 166.362 221.861 166.88 222.224 167.271 222.611 167.664 223.079 167.969 223.596 168.162 224.332 168.442 225.083 168.68 225.846 168.876 226.898 169.152 227.93 169.5 228.933 169.919 229.73 170.267 230.425 170.811 230.955 171.501 231.55 172.345 231.844 173.365 231.791 174.396 231.791 175.365 231.521 176.316 231.009 177.14 230.455 178.029 229.663 178.747 228.723 179.212 227.628 179.755 226.418 180.024 225.197 179.994 224.02 180.014 222.853 179.791 221.767 179.34Z"
            fill="#64a19d"
            transform="matrix(1 0 0 1.00177 477.177 143)"
        />
        <path
            d="M254.736 173.426 243.197 173.426C243.241 174.536 243.725 175.583 244.542 176.335 245.352 177.068 246.413 177.462 247.505 177.433 249.188 177.433 250.378 176.728 251.073 175.32L254.448 175.32C254.003 176.693 253.133 177.889 251.965 178.736 250.664 179.655 249.097 180.123 247.505 180.067 246.148 180.09 244.809 179.754 243.623 179.093 242.485 178.451 241.552 177.499 240.934 176.349 240.262 175.083 239.927 173.665 239.959 172.233 239.927 170.803 240.252 169.388 240.906 168.117 241.506 166.961 242.431 166.007 243.568 165.373 244.775 164.716 246.132 164.385 247.505 164.412 248.835 164.383 250.148 164.698 251.32 165.327 252.421 165.934 253.326 166.843 253.926 167.947 254.559 169.142 254.874 170.479 254.841 171.83 254.85 172.364 254.815 172.898 254.736 173.426ZM251.58 170.902C251.603 169.84 251.15 168.824 250.346 168.13 249.512 167.425 248.446 167.053 247.355 167.088 246.333 167.065 245.342 167.433 244.583 168.117 243.795 168.841 243.305 169.835 243.211 170.902Z"
            fill="#64a19d"
            transform="matrix(1 0 0 1.00177 477.177 143)"
        />
        <path
            d="M268.374 165.098C269.202 164.65 270.134 164.428 271.077 164.453L271.077 167.691 270.285 167.691C269.06 167.691 268.127 168.002 267.5 168.606 266.874 169.21 266.554 170.307 266.554 171.844L266.554 179.802 263.425 179.802 263.425 164.7 266.554 164.7 266.554 166.896C266.99 166.145 267.618 165.525 268.374 165.098Z"
            fill="#64a19d"
            transform="matrix(1 0 0 1.00177 477.177 143)"
        />
        <path
            d="M285.286 177.021 289.567 164.7 292.887 164.7 287.124 179.82 283.393 179.82 277.658 164.7 281.005 164.7Z"
            fill="#64a19d"
            transform="matrix(1 0 0 1.00177 477.177 143)"
        />
        <path
            d="M300.899 162.121C300.111 161.344 300.102 160.076 300.878 159.288 301.26 158.901 301.783 158.685 302.326 158.691 302.852 158.682 303.359 158.89 303.726 159.267 304.495 160.063 304.495 161.325 303.726 162.121 303.359 162.498 302.852 162.706 302.326 162.697 301.792 162.71 301.275 162.501 300.899 162.121ZM303.863 164.7 303.863 179.82 300.735 179.82 300.735 164.7Z"
            fill="#64a19d"
            transform="matrix(1 0 0 1.00177 477.177 143)"
        />
        <path
            d="M313.371 168.144C313.963 166.997 314.873 166.044 315.992 165.4 318.646 164.006 321.843 164.137 324.374 165.743 325.602 166.653 326.463 167.972 326.803 169.461L323.428 169.461C323.185 168.752 322.723 168.137 322.111 167.705 321.433 167.262 320.633 167.041 319.824 167.074 318.646 167.03 317.515 167.537 316.764 168.446 316.005 169.361 315.626 170.627 315.626 172.246 315.626 173.865 316.005 175.137 316.764 176.061 317.514 176.971 318.646 177.478 319.824 177.433 321.635 177.433 322.833 176.637 323.419 175.045L326.794 175.045C326.404 176.507 325.534 177.795 324.324 178.704 323.017 179.646 321.434 180.129 319.824 180.076 318.479 180.102 317.152 179.765 315.982 179.102 314.867 178.453 313.959 177.502 313.362 176.358 312.1 173.768 312.1 170.743 313.362 168.153Z"
            fill="#64a19d"
            transform="matrix(1 0 0 1.00177 477.177 143)"
        />
        <path
            d="M349.167 173.426 337.614 173.426C337.66 174.536 338.143 175.582 338.959 176.335 339.768 177.068 340.83 177.462 341.922 177.433 343.605 177.433 344.794 176.728 345.49 175.32L348.865 175.32C348.42 176.693 347.55 177.889 346.381 178.736 345.081 179.655 343.514 180.123 341.922 180.067 340.565 180.089 339.226 179.753 338.04 179.093 336.903 178.45 335.97 177.498 335.351 176.349 334.679 175.083 334.343 173.665 334.376 172.233 334.343 170.803 334.669 169.388 335.323 168.117 335.923 166.961 336.848 166.007 337.985 165.373 339.192 164.716 340.549 164.385 341.922 164.412 343.251 164.383 344.565 164.698 345.737 165.327 346.838 165.934 347.743 166.843 348.343 167.947 348.976 169.142 349.291 170.479 349.258 171.83 349.271 172.364 349.241 172.898 349.167 173.426ZM346.011 170.902C346.034 169.84 345.581 168.824 344.776 168.13 343.943 167.425 342.877 167.053 341.785 167.088 340.764 167.066 339.773 167.434 339.014 168.117 338.225 168.841 337.736 169.835 337.642 170.902Z"
            fill="#64a19d"
            transform="matrix(1 0 0 1.00177 477.177 143)"
        />
        <path
            d="M360.129 179.422C359.245 179.038 358.475 178.433 357.893 177.666 357.352 176.948 357.045 176.081 357.015 175.182L360.252 175.182C360.308 175.825 360.643 176.412 361.167 176.788 361.774 177.233 362.514 177.46 363.266 177.433 363.983 177.475 364.696 177.298 365.311 176.925 365.762 176.646 366.038 176.152 366.038 175.621 366.051 175.075 365.73 174.576 365.228 174.359 364.402 173.978 363.543 173.672 362.663 173.445 361.721 173.194 360.796 172.889 359.891 172.53 359.175 172.236 358.541 171.775 358.039 171.185 357.494 170.513 357.216 169.663 357.257 168.798 357.253 168.005 357.503 167.231 357.97 166.589 358.493 165.884 359.201 165.338 360.015 165.011 360.984 164.611 362.026 164.415 363.074 164.435 364.571 164.363 366.044 164.825 367.231 165.738 368.289 166.617 368.906 167.917 368.919 169.292L365.791 169.292C365.759 168.66 365.46 168.071 364.968 167.673 364.391 167.244 363.682 167.03 362.964 167.069 362.301 167.024 361.64 167.184 361.071 167.527 360.654 167.797 360.405 168.264 360.413 168.761 360.41 169.15 360.577 169.521 360.87 169.777 361.179 170.062 361.544 170.281 361.94 170.422 362.361 170.577 362.983 170.774 363.806 171.012 364.727 171.245 365.63 171.543 366.509 171.903 367.212 172.202 367.837 172.657 368.338 173.234 368.876 173.89 369.158 174.719 369.134 175.567 369.141 176.385 368.892 177.185 368.42 177.853 367.908 178.56 367.21 179.11 366.404 179.445 365.435 179.848 364.393 180.045 363.344 180.021 362.241 180.056 361.145 179.852 360.129 179.422Z"
            fill="#64a19d"
            transform="matrix(1 0 0 1.00177 477.177 143)"
        />
    </g>
</svg>
