<svg
    width="140"
    height="180"
    viewBox="0 0 140 180"
    xmlns="http://www.w3.org/2000/svg"
    xmlns:xlink="http://www.w3.org/1999/xlink"
>
    <!-- <rect
        x="0"
        y="0"
        width="140"
        height="180"
        fill="white"
    /> -->
    <g transform="translate(-506 -329)">
        <path
            d="M113.43 89.2132C113.43 89.6784 113.43 90.1437 113.407 90.6089 113.23 96.9853 111.728 103.255 108.996 109.019L108.973 109.07C107.733 111.642 104.643 112.722 102.072 111.482 101.895 111.397 101.723 111.302 101.556 111.197L100.835 110.731C98.9603 109.544 98.3006 107.123 99.3139 105.148 101.767 100.206 103.041 94.7628 103.036 89.2458 103.036 88.8735 103.036 88.5013 103.036 88.1338 102.406 68.2915 85.8112 52.716 65.9689 53.3455 62.9903 53.44 60.035 53.9043 57.1709 54.7283 54.9227 55.3927 52.4932 54.7148 50.9132 52.9836L50.8806 52.951C49.0982 50.9671 49.2615 47.9136 51.2453 46.131 51.7595 45.6692 52.3662 45.3231 53.0254 45.116 77.4249 37.3585 103.493 50.8494 111.251 75.2489 112.686 79.7652 113.421 84.4745 113.43 89.2132Z"
            fill="#004350"
            transform="matrix(1.00597 0 0 1 507 330.143)"
        />
        <path
            d="M83.3788 125.522C85.1575 127.496 84.9998 130.537 83.0262 132.316 82.5121 132.779 81.904 133.127 81.2433 133.334 56.8582 141.119 30.7787 127.663 22.9929 103.278 21.5411 98.7305 20.8004 93.9867 20.797 89.2132 20.797 88.7479 20.797 88.2827 20.797 87.8174 21.0781 81.8551 22.4008 75.9882 24.7052 70.4819 25.7267 68.124 28.4661 67.0408 30.8239 68.0621 31.4223 68.3217 31.9594 68.7037 32.4006 69.1838L32.4006 69.1838C34.0932 71.0681 34.571 73.7494 33.6335 76.1022 32.0028 80.276 31.168 84.7183 31.1723 89.1992 31.1723 89.5714 31.1723 89.9436 31.1723 90.3112 31.7796 110.152 48.3556 125.743 68.1966 125.136 71.1798 125.045 74.1402 124.582 77.0095 123.759 79.2967 123.081 81.7704 123.77 83.3788 125.531Z"
            fill="#004350"
            transform="matrix(1.00597 0 0 1 507 330.143)"
        />
        <path
            d="M92.3676 85.5469C90.3298 71.5883 77.3617 61.9244 63.403 63.9622 62.6707 64.0688 61.9435 64.2074 61.2233 64.3777 58.756 64.9593 56.3906 65.9098 54.2072 67.1972 51.1858 68.9698 48.5617 71.3454 46.4979 74.176L46.9119 74.6413 46.2792 74.4924C38.1414 85.9996 40.8729 101.925 52.3801 110.063 56.6889 113.11 61.836 114.746 67.1134 114.747 69.095 114.747 71.07 114.518 72.9989 114.063 75.4699 113.476 77.8381 112.521 80.0243 111.229 83.0448 109.455 85.6688 107.08 87.7337 104.25L87.3196 103.785 87.9523 103.939C91.0072 99.6312 92.6449 94.4799 92.6375 89.1992 92.6365 87.977 92.5467 86.7561 92.3676 85.5469ZM82.2343 89.2132C82.2334 97.5641 75.463 104.333 67.1116 104.332 58.7607 104.332 51.9916 97.5608 51.9926 89.2099 51.993 86.7566 52.5899 84.3401 53.7326 82.1692 54.7408 80.2565 56.1464 78.5811 57.8548 77.2561 60.5049 75.2047 63.7617 74.0918 67.1134 74.0923 72.9696 74.0835 78.302 77.4645 80.792 82.7647 81.7416 84.7816 82.2343 86.9837 82.2343 89.2132Z"
            fill="#017185"
            transform="matrix(1.00597 0 0 1 507 330.143)"
        />
        <path
            d="M43.055 62.5399 42.9805 62.6097C40.9009 64.5117 37.6749 64.3745 35.7644 62.3027L35.5922 62.1166C33.7139 60.0369 33.8742 56.8289 35.9505 54.9469L36.1366 54.7794C38.2166 52.9068 41.4187 53.0668 43.3015 55.1377L43.469 55.3238C45.3435 57.4324 45.1583 60.6598 43.055 62.5399Z"
            fill="#004350"
            transform="matrix(1.00597 0 0 1 507 330.143)"
        />
        <path
            d="M98.2764 123.475 98.0949 123.642C96.0148 125.524 92.8031 125.363 90.9207 123.284L90.7532 123.098C88.8819 120.99 89.0671 117.766 91.1673 115.886L91.2464 115.817C93.3265 113.911 96.5563 114.049 98.4672 116.124L98.6346 116.31C100.512 118.388 100.352 121.594 98.2764 123.475Z"
            fill="#004350"
            transform="matrix(1.00597 0 0 1 507 330.143)"
        />
        <path
            d="M101.947 27.3665 94.9126 2.75433C94.3436 0.738885 92.2485-0.433805 90.2335 0.135049 89.6915 0.288005 89.1904 0.559738 88.7665 0.930516L68.4766 18.6568C66.2025 20.6681 63.3514 21.9104 60.33 22.2068 36.9787 24.3842 17.5542 38.7048 7.33712 58.669 6.06217 61.1716 7.05722 64.2335 9.55965 65.5088 9.92199 65.693 10.3051 65.8335 10.7009 65.927 13.0864 66.5128 15.564 65.398 16.7074 63.2239 26.4425 44.3562 45.901 32.5066 67.132 32.5169 97.197 32.5169 122.2 57.5245 123.656 89.0876 123.75 91.4585 125.404 93.4796 127.709 94.0426 130.538 94.7288 133.388 92.9915 134.074 90.1623 134.176 89.7417 134.225 89.3104 134.222 88.8782 133.957 66.9692 122.614 47.3307 107.703 35.783 104.932 33.6659 102.915 30.7157 101.947 27.3665Z"
            fill="#000000"
            transform="matrix(1.00597 0 0 1 507 330.143)"
        />
        <path
            d="M123.6 112.513C121.178 111.919 118.662 113.051 117.501 115.258 103.113 143.084 68.8921 153.978 41.0664 139.589 22.228 129.848 10.3974 110.412 10.3985 89.2039L10.3985 89.162C10.4136 86.9218 8.88912 84.9644 6.71367 84.4303L6.19258 84.3047C3.50325 83.6519 0.794 85.3031 0.141295 87.9923 0.049449 88.3706 0.00203089 88.7586 1.88879e-07 89.148L0 89.2132C-0.0153547 110.858 10.4275 131.178 28.0364 143.765 30.6625 145.651 32.5716 148.372 33.452 151.483L40.1145 174.769C40.7258 176.922 42.9667 178.172 45.1197 177.561 45.7139 177.392 46.2617 177.09 46.7212 176.677L63.9357 161.249C67.2707 158.251 71.4371 156.337 75.8835 155.759 97.7986 152.873 116.891 139.389 126.941 119.702 128.205 117.222 127.219 114.188 124.739 112.924 124.385 112.744 124.01 112.606 123.624 112.513Z"
            fill="#000000"
            transform="matrix(1.00597 0 0 1 507 330.143)"
        />
    </g>
</svg>
