<?xml version="1.0" encoding="UTF-8" standalone="no"?>
<svg
   width="460"
   height="230"
   viewBox="0 0 460 230"
   version="1.1"
   id="svg28"
   sodipodi:docname="267-full.svg"
   inkscape:version="1.4.2 (ebf0e940, 2025-05-08)"
   xmlns:inkscape="http://www.inkscape.org/namespaces/inkscape"
   xmlns:sodipodi="http://sodipodi.sourceforge.net/DTD/sodipodi-0.dtd"
   xmlns="http://www.w3.org/2000/svg"
   xmlns:svg="http://www.w3.org/2000/svg">
  <defs
     id="defs28" />
  <sodipodi:namedview
     id="namedview28"
     pagecolor="#505050"
     bordercolor="#eeeeee"
     borderopacity="1"
     inkscape:showpageshadow="0"
     inkscape:pageopacity="0"
     inkscape:pagecheckerboard="0"
     inkscape:deskcolor="#505050"
     inkscape:zoom="1.5130435"
     inkscape:cx="230"
     inkscape:cy="110.70402"
     inkscape:window-width="1456"
     inkscape:window-height="920"
     inkscape:window-x="61"
     inkscape:window-y="34"
     inkscape:window-maximized="0"
     inkscape:current-layer="svg28" />
  <!-- <rect
        x="0"
        y="0"
        width="460"
        height="230"
        fill="white"
    /> -->
  <path
     d="m 167.4,138.1 c -2.4,-0.6 -4.9,0.5 -6,2.7 -14.1,27.4 -47.8,38.1 -75.1,23.9 -18.5,-9.6 -30.1,-28.7 -30.1,-49.6 v -0 c 0,-2.2 -1.5,-4.1 -3.6,-4.7 l -0.5,-0.1 c -2.6,-0.6 -5.3,1 -5.9,3.6 -0.1,0.4 -0.1,0.7 -0.1,1.1 v 0.1 c -0,21.3 10.2,41.3 27.6,53.7 2.6,1.9 4.5,4.5 5.3,7.6 l 6.6,22.9 c 0.6,2.1 2.8,3.3 4.9,2.7 0.6,-0.2 1.1,-0.5 1.6,-0.9 l 16.9,-15.2 c 3.3,-3 7.4,-4.8 11.7,-5.4 21.5,-2.8 40.3,-16.1 50.2,-35.5 1.2,-2.4 0.3,-5.4 -2.2,-6.7 -0.3,-0.2 -0.7,-0.3 -1.1,-0.4 z"
     fill="#ffffff"
     id="path10"
     style="stroke-width: 1"
     inkscape:label="bottom" />
  <path
     d="m 157.4,115.2 c 0,0.5 0,0.9 0,1.4 -0.2,6.3 -1.7,12.4 -4.4,18.1 l -0,0.1 c -1.2,2.5 -4.3,3.6 -6.8,2.4 -0.2,-0.1 -0.3,-0.2 -0.5,-0.3 l -0.7,-0.5 c -1.8,-1.2 -2.5,-3.6 -1.5,-5.5 2.4,-4.9 3.7,-10.2 3.7,-15.7 0,-0.4 0,-0.7 0,-1.1 -0.6,-19.5 -16.9,-34.9 -36.4,-34.3 -2.9,0.1 -5.8,0.6 -8.6,1.4 -2.2,0.7 -4.6,-0 -6.2,-1.7 l -0,-0 c -1.8,-2 -1.6,-5 0.4,-6.7 0.5,-0.5 1.1,-0.8 1.8,-1 24,-7.7 49.6,5.6 57.2,29.6 1.4,4.5 2.2,9.1 2.2,13.8 z"
     fill="#000000"
     id="path1"
     style="stroke-width: 1"
     inkscape:label="middle-right" />
  <path
     d="m 127.8,151 c 1.7,1.9 1.6,4.9 -0.3,6.7 -0.5,0.5 -1.1,0.8 -1.8,1 -24,7.7 -49.6,-5.6 -57.3,-29.6 -1.4,-4.5 -2.2,-9.1 -2.2,-13.9 0,-0.5 0,-0.9 0,-1.4 0.3,-5.9 1.6,-11.6 3.8,-17.1 1,-2.3 3.7,-3.4 6,-2.4 0.6,0.3 1.1,0.6 1.6,1.1 v 0 c 1.7,1.9 2.1,4.5 1.2,6.8 -1.6,4.1 -2.4,8.5 -2.4,12.9 0,0.4 0,0.7 0,1.1 0.6,19.5 16.9,34.9 36.4,34.3 2.9,-0.1 5.8,-0.5 8.6,-1.3 2.2,-0.7 4.7,0 6.3,1.8 z"
     fill="#000000"
     id="path2"
     style="stroke-width: 1"
     inkscape:label="middle-left" />
  <path
     d="m 142.5,148.9 -0.2,0.2 c -2,1.8 -5.2,1.7 -7.1,-0.4 l -0.2,-0.2 c -1.8,-2.1 -1.7,-5.3 0.4,-7.1 l 0.1,-0.1 c 2,-1.9 5.2,-1.7 7.1,0.3 l 0.2,0.2 c 1.8,2 1.7,5.2 -0.3,7.1 z"
     fill="#000000"
     id="path8"
     style="stroke-width: 1"
     inkscape:label="middle-right-circle" />
  <path
     d="m 88.2,88.9 -0.1,0.1 c -2,1.9 -5.2,1.8 -7.1,-0.3 -0,-0 -0,-0 -0,-0 l -0.2,-0.2 c -1.8,-2 -1.7,-5.2 0.3,-7.1 l 0.2,-0.2 c 2,-1.8 5.2,-1.7 7,0.4 l 0.2,0.2 c 1.8,2.1 1.7,5.2 -0.4,7.1 z"
     fill="#000000"
     id="path7"
     style="stroke-width: 1"
     inkscape:label="middle-left-circle" />
  <path
     d="m 146.1,54.3 -6.9,-24.2 c -0.6,-2 -2.6,-3.1 -4.6,-2.6 -0.5,0.2 -1,0.4 -1.4,0.8 l -19.9,17.5 c -2.2,2 -5,3.2 -8,3.5 -23,2.1 -42,16.2 -52.1,35.9 -1.3,2.5 -0.3,5.5 2.2,6.7 0.3,0.2 0.7,0.3 1.1,0.4 2.3,0.6 4.8,-0.5 5.9,-2.7 9.6,-18.6 28.7,-30.2 49.6,-30.2 29.6,0 54.1,24.6 55.6,55.7 0.1,2.3 1.7,4.3 4,4.9 2.8,0.7 5.6,-1 6.3,-3.8 0.1,-0.4 0.1,-0.8 0.1,-1.3 -0.3,-21.6 -11.4,-40.9 -26.1,-52.3 -2.7,-2.1 -4.7,-5 -5.6,-8.3 z"
     fill="#ffffff"
     id="path9"
     style="stroke-width: 1"
     inkscape:label="top" />
  <path
     d="m 136.7,111.6 c -2,-13.7 -14.8,-23.3 -28.5,-21.3 -0.7,0.1 -1.4,0.2 -2.1,0.4 -2.4,0.6 -4.8,1.5 -6.9,2.8 -3,1.7 -5.5,4.1 -7.6,6.9 l 0.4,0.5 -0.6,-0.1 c -8,11.3 -5.3,27 6,35 4.2,3 9.3,4.6 14.5,4.6 1.9,0 3.9,-0.2 5.8,-0.7 2.4,-0.6 4.8,-1.5 6.9,-2.8 3,-1.7 5.5,-4.1 7.6,-6.9 l -0.4,-0.5 0.6,0.2 c 3,-4.2 4.6,-9.3 4.6,-14.5 -0,-1.2 -0.1,-2.4 -0.3,-3.6 z m -10,3.6 c -0,8.2 -6.7,14.9 -14.9,14.9 -8.2,-0 -14.9,-6.7 -14.9,-14.9 0,-2.4 0.6,-4.8 1.7,-6.9 1,-1.9 2.4,-3.5 4.1,-4.8 2.6,-2 5.8,-3.1 9.1,-3.1 5.8,-0 11,3.3 13.4,8.5 0.9,2 1.4,4.2 1.4,6.3 z"
     fill="#64a19d"
     id="path3"
     style="stroke-width: 1"
     inkscape:label="center" />
  <path
     d="m 402.1,65.5 c 2.8,0 5,2.5 4.5,5.2 -0.1,0.6 -0.3,1.1 -0.7,1.6 l -3,3.4 -45.2,51.9 c -1.8,2 -4.8,2.2 -6.9,0.5 l -0.1,-0.1 c -2.2,-1.9 -2.4,-5.2 -0.5,-7.4 0,-0 0,-0 0,-0 l 39.1,-44.9 h -45.6 c -2.8,0 -5.1,-2.3 -5.1,-5.1 0,-2.8 2.3,-5.1 5.1,-5.1 z"
     fill="#ffffff"
     id="path6"
     style="stroke-width: 1"
     inkscape:label="num7" />
  <path
     d="M 281.1,92.5 V 84.9 c 0,-5.1 4.1,-9.2 9.1,-9.2 h 35 c 2.8,0 5.1,-2.3 5.1,-5.1 0,-2.8 -2.3,-5.1 -5.1,-5.1 h -34.1 c -11.2,0 -20.2,9.1 -20.2,20.2 v 22.1 c 0,10.9 8.8,19.7 19.7,19.7 h 26.6 c 9.6,0 17.5,-7.8 17.5,-17.5 v -0.1 c 0,-9.6 -7.7,-17.3 -17.3,-17.3 z m 36.1,24.7 h -26.7 c -5.2,0 -9.4,-4.2 -9.4,-9.4 v -5.1 h 36.1 c 4,0 7.3,3.3 7.3,7.3 0,4 -3.2,7.2 -7.2,7.2 -0,0 -0,0 -0,0 z"
     fill="#ffffff"
     id="path5"
     style="stroke-width: 1"
     inkscape:label="num6" />
  <path
     d="m 266.4,122.4 v 0 c 0,2.8 -2.3,5.1 -5.1,5.1 h -61 c -3.2,0 -5.8,-2.6 -5.8,-5.8 v -10.5 c 0,-10.3 8.4,-18.7 18.7,-18.7 h 26.8 c 4.4,0 8,-3.6 8,-8.1 0,-4.8 -3.9,-8.7 -8.7,-8.7 -0,0 -0,0 -0,0 h -52 c -2.8,0 -5.1,-2.3 -5.1,-5.1 0,-0 0,-0 0,-0 0,-2.8 2.3,-5.1 5.1,-5.1 h 52.3 c 10.3,0 18.6,8.4 18.6,18.7 0,10.3 -8.3,18.6 -18.6,18.6 h -27.2 c -4.2,0 -7.7,3.4 -7.7,7.7 v 6.8 h 56.5 c 2.8,0 5.1,2.3 5.1,5.1 z"
     fill="#ffffff"
     id="path4"
     style="stroke-width: 1"
     inkscape:label="num2" />
  <path
     d="m 197.4,141.3 c 0.8,-1.5 2.1,-2.7 3.5,-3.5 3.2,-1.8 7.2,-1.7 10.3,0.2 1.6,1 2.8,2.5 3.4,4.2 h -3.8 c -0.4,-0.9 -1.2,-1.7 -2.1,-2.3 -0.9,-0.5 -2,-0.8 -3,-0.7 -1.2,-0 -2.3,0.3 -3.4,0.9 -1,0.6 -1.8,1.4 -2.3,2.4 -1.1,2.3 -1.1,5.1 0,7.4 0.5,1 1.3,1.9 2.3,2.5 1,0.6 2.2,0.9 3.4,0.9 1.1,0 2.1,-0.2 3,-0.7 0.9,-0.5 1.6,-1.3 2.1,-2.3 h 3.8 c -0.6,1.8 -1.9,3.2 -3.4,4.2 -1.6,1 -3.5,1.5 -5.4,1.5 -1.7,0 -3.4,-0.4 -4.9,-1.3 -1.5,-0.8 -2.7,-2 -3.5,-3.5 -1.7,-3.1 -1.7,-6.9 0,-10.1 z"
     fill="#64a19d"
     id="path11"
     style="stroke-width: 1" />
  <path
     d="m 226.6,155.2 c -1.1,-0.6 -2.1,-1.6 -2.7,-2.7 -0.7,-1.3 -1,-2.7 -1,-4.1 -0,-1.4 0.3,-2.8 1,-4.1 0.6,-1.2 1.6,-2.1 2.8,-2.7 2.5,-1.3 5.4,-1.3 7.8,0 1.2,0.6 2.1,1.6 2.8,2.7 0.7,1.3 1,2.7 1,4.1 0,1.4 -0.3,2.9 -1,4.1 -0.7,1.2 -1.7,2.1 -2.8,2.7 -1.2,0.7 -2.6,1 -4,1 -1.4,0 -2.7,-0.3 -3.9,-0.9 z m 6.1,-2.3 c 0.7,-0.4 1.3,-1 1.7,-1.7 0.5,-0.9 0.7,-1.8 0.7,-2.8 0,-1 -0.2,-1.9 -0.6,-2.8 -0.4,-0.7 -1,-1.3 -1.7,-1.7 -0.7,-0.4 -1.5,-0.6 -2.2,-0.6 -0.8,-0 -1.6,0.2 -2.2,0.6 -0.7,0.4 -1.3,1 -1.6,1.7 -0.4,0.9 -0.6,1.8 -0.6,2.8 0,1.6 0.4,2.9 1.2,3.8 0.8,0.9 2,1.4 3.1,1.3 0.8,0 1.6,-0.2 2.3,-0.6 z"
     fill="#64a19d"
     id="path12"
     style="stroke-width: 1" />
  <path
     d="m 257.7,141.3 c 0.9,0.5 1.7,1.3 2.2,2.2 0.6,1.1 0.8,2.3 0.8,3.5 v 8.9 h -3.1 v -8.5 c 0,-1.4 -0.3,-2.4 -1,-3.1 -0.7,-0.7 -1.7,-1.1 -2.8,-1.1 -1,-0.1 -2.1,0.3 -2.8,1.1 -0.7,0.7 -1,1.8 -1,3.1 v 8.5 h -3.1 V 140.8 h 3.1 v 1.7 c 0.5,-0.6 1.2,-1.1 2,-1.5 0.8,-0.3 1.7,-0.5 2.5,-0.5 1.1,-0 2.2,0.2 3.2,0.7 z"
     fill="#64a19d"
     id="path13"
     style="stroke-width: 1" />
  <path
     d="m 272.4,155.5 c -0.9,-0.4 -1.7,-1 -2.2,-1.8 -0.5,-0.7 -0.8,-1.6 -0.9,-2.5 h 3.2 c 0.1,0.6 0.4,1.2 0.9,1.6 0.6,0.5 1.3,0.7 2.1,0.7 0.7,0 1.4,-0.1 2,-0.5 0.5,-0.3 0.7,-0.8 0.7,-1.3 0,-0.5 -0.3,-1 -0.8,-1.3 -0.8,-0.4 -1.7,-0.7 -2.6,-0.9 -0.9,-0.3 -1.9,-0.6 -2.8,-0.9 -0.7,-0.3 -1.3,-0.8 -1.8,-1.3 -0.5,-0.7 -0.8,-1.5 -0.8,-2.4 -0,-0.8 0.2,-1.6 0.7,-2.2 0.5,-0.7 1.2,-1.3 2,-1.6 1,-0.4 2,-0.6 3.1,-0.6 1.5,-0.1 3,0.4 4.2,1.3 1.1,0.9 1.7,2.2 1.7,3.6 h -3.1 c -0,-0.6 -0.3,-1.2 -0.8,-1.6 -0.6,-0.4 -1.3,-0.6 -2,-0.6 -0.7,-0 -1.3,0.1 -1.9,0.5 -0.4,0.3 -0.7,0.7 -0.7,1.2 -0,0.4 0.2,0.8 0.5,1 0.3,0.3 0.7,0.5 1.1,0.6 0.4,0.2 1,0.4 1.9,0.6 0.9,0.2 1.8,0.5 2.7,0.9 0.7,0.3 1.3,0.8 1.8,1.3 0.5,0.7 0.8,1.5 0.8,2.3 0,0.8 -0.2,1.6 -0.7,2.3 -0.5,0.7 -1.2,1.3 -2,1.6 -1,0.4 -2,0.6 -3.1,0.6 -1.1,0 -2.2,-0.2 -3.2,-0.6 z"
     fill="#64a19d"
     id="path14"
     style="stroke-width: 1" />
  <path
     d="m 304,140.8 v 15.1 h -3.1 v -1.8 c -0.5,0.6 -1.2,1.1 -1.9,1.5 -0.8,0.4 -1.7,0.5 -2.5,0.5 -1.1,0 -2.2,-0.2 -3.2,-0.7 -0.9,-0.5 -1.7,-1.3 -2.2,-2.2 -0.6,-1.1 -0.8,-2.3 -0.8,-3.5 V 140.8 h 3.1 v 8.4 c 0,1.4 0.3,2.4 1,3.1 0.7,0.7 1.7,1.1 2.8,1.1 1,0.1 2.1,-0.3 2.8,-1.1 0.7,-0.7 1,-1.8 1,-3.1 V 140.8 Z"
     fill="#64a19d"
     id="path15"
     style="stroke-width: 1" />
  <path
     d="m 316.7,135.6 v 20.3 h -3.1 v -20.3 z"
     fill="#64a19d"
     id="path16"
     style="stroke-width: 1" />
  <path
     d="m 330,143.4 v 8.4 c -0,0.4 0.1,0.9 0.4,1.2 0.4,0.3 0.9,0.4 1.4,0.4 h 1.9 v 2.6 h -2.5 c -1.4,0 -2.5,-0.3 -3.2,-1 -0.8,-0.7 -1.1,-1.7 -1.2,-3.2 v -8.4 h -1.8 v -2.6 h 1.8 v -3.8 h 3.2 v 3.8 h 3.7 v 2.6 z"
     fill="#64a19d"
     id="path17"
     style="stroke-width: 1" />
  <path
     d="m 342.2,138.2 c -0.8,-0.8 -0.8,-2 -0,-2.8 0.4,-0.4 0.9,-0.6 1.4,-0.6 0.5,-0 1,0.2 1.4,0.6 0.8,0.8 0.8,2.1 0,2.9 -0.4,0.4 -0.9,0.6 -1.4,0.6 -0.5,0 -1.1,-0.2 -1.4,-0.6 z m 3,2.6 v 15.1 H 342 V 140.8 Z"
     fill="#64a19d"
     id="path18"
     style="stroke-width: 1" />
  <path
     d="m 365.6,141.3 c 0.9,0.5 1.7,1.3 2.2,2.2 0.6,1.1 0.8,2.3 0.8,3.5 v 8.9 h -3.1 v -8.5 c 0,-1.4 -0.3,-2.4 -1,-3.1 -0.7,-0.7 -1.7,-1.1 -2.8,-1.1 -1,-0.1 -2.1,0.3 -2.8,1.1 -0.7,0.7 -1,1.8 -1,3.1 v 8.5 h -3.1 V 140.8 h 3.1 v 1.7 c 0.5,-0.6 1.2,-1.1 2,-1.5 0.8,-0.3 1.7,-0.5 2.5,-0.5 1.1,-0 2.2,0.2 3.2,0.7 z"
     fill="#64a19d"
     id="path19"
     style="stroke-width: 1" />
  <path
     d="m 387.3,141.2 c 0.8,0.4 1.6,1 2.1,1.7 V 140.8 h 3.2 v 15.4 c 0,1.3 -0.3,2.6 -0.9,3.7 -0.6,1.1 -1.5,2 -2.5,2.6 -1.2,0.6 -2.6,1 -4,0.9 -1.8,0.1 -3.6,-0.4 -5.1,-1.4 -1.3,-0.9 -2.1,-2.3 -2.3,-3.9 h 3.1 c 0.3,0.8 0.8,1.5 1.5,1.9 0.8,0.5 1.8,0.8 2.8,0.7 1.1,0 2.2,-0.4 3.1,-1.2 0.8,-0.8 1.2,-1.9 1.2,-3.4 v -2.5 c -1.3,1.6 -3.2,2.6 -5.2,2.5 -1.3,0 -2.5,-0.3 -3.6,-1 -1.1,-0.7 -2,-1.6 -2.6,-2.8 -0.6,-1.3 -1,-2.7 -0.9,-4.1 -0,-1.4 0.3,-2.8 0.9,-4 1.2,-2.3 3.6,-3.7 6.2,-3.7 1.1,-0 2.1,0.2 3.1,0.7 z m 1.5,4.4 c -0.4,-0.7 -1,-1.3 -1.7,-1.8 -0.7,-0.4 -1.5,-0.6 -2.2,-0.6 -0.8,-0 -1.6,0.2 -2.2,0.6 -0.7,0.4 -1.3,1 -1.7,1.7 -0.4,0.8 -0.7,1.8 -0.6,2.7 -0,1 0.2,1.9 0.6,2.7 0.4,0.7 1,1.4 1.7,1.8 0.7,0.4 1.4,0.6 2.2,0.6 0.8,0 1.6,-0.2 2.2,-0.6 0.7,-0.4 1.3,-1 1.7,-1.8 0.4,-0.8 0.7,-1.8 0.6,-2.7 0,-0.9 -0.2,-1.9 -0.6,-2.7 z"
     fill="#64a19d"
     id="path20"
     style="stroke-width: 1" />
  <path
     d="m 222.9,180.7 c -1,-0.4 -1.8,-1.1 -2.4,-1.9 -0.6,-0.8 -0.9,-1.9 -0.9,-2.9 h 3.3 c 0.1,0.8 0.4,1.5 1,2 0.7,0.6 1.5,0.9 2.4,0.8 0.9,0.1 1.8,-0.2 2.5,-0.8 0.6,-0.5 0.9,-1.2 0.9,-2 0,-0.6 -0.2,-1.1 -0.6,-1.6 -0.4,-0.4 -0.9,-0.7 -1.4,-0.9 -0.8,-0.3 -1.5,-0.5 -2.3,-0.7 -1,-0.3 -2,-0.6 -3,-1 -0.8,-0.3 -1.5,-0.9 -2,-1.6 -0.6,-0.8 -0.9,-1.8 -0.8,-2.9 -0,-1 0.3,-2 0.8,-2.9 0.6,-0.8 1.4,-1.5 2.3,-1.9 1.1,-0.5 2.3,-0.7 3.4,-0.7 1.6,-0.1 3.2,0.4 4.5,1.4 1.2,0.9 1.9,2.3 2,3.8 h -3.5 c -0.1,-0.7 -0.4,-1.4 -1,-1.8 -0.7,-0.5 -1.5,-0.8 -2.4,-0.7 -0.8,-0 -1.6,0.2 -2.2,0.7 -0.6,0.5 -0.9,1.2 -0.9,2 -0,0.5 0.2,1.1 0.5,1.4 0.4,0.4 0.9,0.7 1.4,0.9 0.7,0.3 1.5,0.5 2.2,0.7 1.1,0.3 2.1,0.6 3.1,1 0.8,0.3 1.5,0.9 2,1.6 0.6,0.8 0.9,1.9 0.8,2.9 0,1 -0.3,1.9 -0.8,2.7 -0.6,0.9 -1.3,1.6 -2.3,2.1 -1.1,0.5 -2.3,0.8 -3.5,0.8 -1.2,0 -2.3,-0.2 -3.4,-0.7 z"
     fill="#64a19d"
     id="path21"
     style="stroke-width: 1" />
  <path
     d="m 255.9,174.7 h -11.5 c 0,1.1 0.5,2.2 1.3,2.9 0.8,0.7 1.9,1.1 3,1.1 1.7,0 2.9,-0.7 3.6,-2.1 h 3.4 c -0.4,1.4 -1.3,2.6 -2.5,3.4 -1.3,0.9 -2.9,1.4 -4.5,1.3 -1.4,0 -2.7,-0.3 -3.9,-1 -1.1,-0.6 -2.1,-1.6 -2.7,-2.7 -0.7,-1.3 -1,-2.7 -1,-4.1 -0,-1.4 0.3,-2.9 0.9,-4.1 0.6,-1.2 1.5,-2.1 2.7,-2.7 1.2,-0.7 2.6,-1 3.9,-1 1.3,-0 2.6,0.3 3.8,0.9 1.1,0.6 2,1.5 2.6,2.6 0.6,1.2 0.9,2.5 0.9,3.9 0,0.5 -0,1.1 -0.1,1.6 z m -3.2,-2.5 c 0,-1.1 -0.4,-2.1 -1.2,-2.8 -0.8,-0.7 -1.9,-1.1 -3,-1 -1,-0 -2,0.3 -2.8,1 -0.8,0.7 -1.3,1.7 -1.4,2.8 z"
     fill="#64a19d"
     id="path22"
     style="stroke-width: 1" />
  <path
     d="m 269.6,166.4 c 0.8,-0.4 1.8,-0.7 2.7,-0.6 v 3.2 h -0.8 c -1.2,0 -2.2,0.3 -2.8,0.9 -0.6,0.6 -0.9,1.7 -0.9,3.2 v 8 h -3.1 v -15.1 h 3.1 v 2.2 c 0.4,-0.8 1.1,-1.4 1.8,-1.8 z"
     fill="#64a19d"
     id="path23"
     style="stroke-width: 1" />
  <path
     d="m 286.5,178.3 4.3,-12.3 h 3.3 l -5.8,15.1 h -3.7 l -5.7,-15.1 h 3.3 z"
     fill="#64a19d"
     id="path24"
     style="stroke-width: 1" />
  <path
     d="m 302.1,163.4 c -0.8,-0.8 -0.8,-2 -0,-2.8 0.4,-0.4 0.9,-0.6 1.4,-0.6 0.5,-0 1,0.2 1.4,0.6 0.8,0.8 0.8,2.1 0,2.9 -0.4,0.4 -0.9,0.6 -1.4,0.6 -0.5,0 -1.1,-0.2 -1.4,-0.6 z m 3,2.6 v 15.1 h -3.1 v -15.1 z"
     fill="#64a19d"
     id="path25"
     style="stroke-width: 1" />
  <path
     d="m 314.5,169.4 c 0.6,-1.1 1.5,-2.1 2.6,-2.7 2.7,-1.4 5.9,-1.3 8.4,0.3 1.2,0.9 2.1,2.2 2.4,3.7 h -3.4 c -0.2,-0.7 -0.7,-1.3 -1.3,-1.8 -0.7,-0.4 -1.5,-0.7 -2.3,-0.6 -1.2,-0 -2.3,0.5 -3.1,1.4 -0.8,0.9 -1.1,2.2 -1.1,3.8 0,1.6 0.4,2.9 1.1,3.8 0.8,0.9 1.9,1.4 3.1,1.4 1.8,0 3,-0.8 3.6,-2.4 h 3.4 c -0.4,1.5 -1.3,2.8 -2.5,3.7 -1.3,0.9 -2.9,1.4 -4.5,1.4 -1.3,0 -2.7,-0.3 -3.8,-1 -1.1,-0.7 -2,-1.6 -2.6,-2.7 -1.3,-2.6 -1.3,-5.6 0,-8.2 z"
     fill="#64a19d"
     id="path26"
     style="stroke-width: 1" />
  <path
     d="m 350.3,174.7 h -11.6 c 0,1.1 0.5,2.2 1.3,2.9 0.8,0.7 1.9,1.1 3,1.1 1.7,0 2.9,-0.7 3.6,-2.1 h 3.4 c -0.4,1.4 -1.3,2.6 -2.5,3.4 -1.3,0.9 -2.9,1.4 -4.5,1.3 -1.4,0 -2.7,-0.3 -3.9,-1 -1.1,-0.6 -2.1,-1.6 -2.7,-2.7 -0.7,-1.3 -1,-2.7 -1,-4.1 -0,-1.4 0.3,-2.9 0.9,-4.1 0.6,-1.2 1.5,-2.1 2.7,-2.7 1.2,-0.7 2.6,-1 3.9,-1 1.3,-0 2.6,0.3 3.8,0.9 1.1,0.6 2,1.5 2.6,2.6 0.6,1.2 0.9,2.5 0.9,3.9 0,0.5 -0,1.1 -0.1,1.6 z m -3.2,-2.5 c 0,-1.1 -0.4,-2.1 -1.2,-2.8 -0.8,-0.7 -1.9,-1.1 -3,-1 -1,-0 -2,0.3 -2.8,1 -0.8,0.7 -1.3,1.7 -1.4,2.8 z"
     fill="#64a19d"
     id="path27"
     style="stroke-width: 1" />
  <path
     d="m 361.3,180.7 c -0.9,-0.4 -1.7,-1 -2.2,-1.8 -0.5,-0.7 -0.8,-1.6 -0.9,-2.5 h 3.2 c 0.1,0.6 0.4,1.2 0.9,1.6 0.6,0.4 1.3,0.7 2.1,0.6 0.7,0 1.4,-0.1 2,-0.5 0.5,-0.3 0.7,-0.8 0.7,-1.3 0,-0.5 -0.3,-1 -0.8,-1.3 -0.8,-0.4 -1.7,-0.7 -2.6,-0.9 -0.9,-0.3 -1.9,-0.6 -2.8,-0.9 -0.7,-0.3 -1.4,-0.8 -1.9,-1.3 -0.5,-0.7 -0.8,-1.5 -0.8,-2.4 -0,-0.8 0.2,-1.6 0.7,-2.2 0.5,-0.7 1.2,-1.3 2,-1.6 1,-0.4 2,-0.6 3.1,-0.6 1.5,-0.1 3,0.4 4.2,1.3 1.1,0.9 1.7,2.2 1.7,3.6 h -3.1 c -0,-0.6 -0.3,-1.2 -0.8,-1.6 -0.6,-0.4 -1.3,-0.6 -2,-0.6 -0.7,-0 -1.3,0.1 -1.9,0.5 -0.4,0.3 -0.7,0.7 -0.7,1.2 -0,0.4 0.2,0.8 0.5,1 0.3,0.3 0.7,0.5 1.1,0.6 0.4,0.2 1,0.4 1.9,0.6 0.9,0.2 1.8,0.5 2.7,0.9 0.7,0.3 1.3,0.8 1.8,1.3 0.5,0.7 0.8,1.5 0.8,2.3 0,0.8 -0.2,1.6 -0.7,2.3 -0.5,0.7 -1.2,1.3 -2,1.6 -1,0.4 -2,0.6 -3.1,0.6 -1.1,0 -2.2,-0.2 -3.2,-0.6 z"
     fill="#64a19d"
     id="path28"
     style="stroke-width: 1"
     inkscape:label="path28" />
</svg>
