<svg xmlns="http://www.w3.org/2000/svg" version="1.1" xmlns:xlink="http://www.w3.org/1999/xlink" width="135" height="178"><svg width="135" height="178" viewBox="0 0 135 178" xmlns="http://www.w3.org/2000/svg" xmlns:svg="http://www.w3.org/2000/svg">

  <!-- <rect
        x="0"
        y="0"
        width="135"
        height="178"
        fill="#64a19d"
    /> -->
  <path d="m 124.3,112.6 c -2.4,-0.6 -5,0.5 -6.1,2.8 -14.5,27.8 -48.9,38.7 -76.9,24.3 -18.9,-9.8 -30.8,-29.2 -30.8,-50.5 v 0 c 0,-2.2 -1.6,-4.2 -3.7,-4.7 l -0.6,-0.1 c -2.7,-0.7 -5.4,1 -6.1,3.6 0,0.4 -0.1,0.8 -0.1,1.2 v 0.1 C 0,110.9 10.5,131.3 28.2,143.8 c 2.6,1.9 4.6,4.6 5.5,7.7 l 6.7,23.3 c 0.6,2.1 2.9,3.4 5,2.8 0.6,-0.2 1.1,-0.5 1.6,-0.9 l 17.3,-15.4 c 3.4,-3 7.5,-4.9 12,-5.5 22.1,-2.9 41.2,-16.4 51.4,-36.1 1.3,-2.5 0.3,-5.5 -2.2,-6.8 -0.4,-0.2 -0.7,-0.3 -1.1,-0.4 z" fill="#64a19d" id="SvgjsPath1025" style="stroke-width: 1px; --darkreader-inline-fill: var(--darkreader-background-64a19d, #4c7d7a);" data-darkreader-inline-fill=""></path>
  <path d="M 102.6,27.4 95.5,2.8 c -0.6,-2 -2.7,-3.2 -4.7,-2.6 -0.6,0.1 -1.1,0.4 -1.5,0.8 L 68.9,18.7 c -2.3,2 -5.2,3.3 -8.2,3.5 -23.5,2.2 -43,16.5 -53.3,36.5 -1.3,2.5 -0.3,5.6 2.2,6.8 0.4,0.2 0.7,0.3 1.1,0.4 2.4,0.6 4.9,-0.5 6,-2.7 9.8,-18.9 29.4,-30.7 50.7,-30.7 30.2,0 55.4,25 56.9,56.6 0.1,2.4 1.8,4.4 4.1,5 2.8,0.7 5.7,-1.1 6.4,-3.9 0.1,-0.4 0.2,-0.9 0.1,-1.3 -0.3,-21.9 -11.7,-41.5 -26.7,-53.1 -2.8,-2.1 -4.8,-5.1 -5.8,-8.4 z" fill="#64a19d" id="SvgjsPath1024" style="stroke-width: 1px; --darkreader-inline-fill: var(--darkreader-background-64a19d, #4c7d7a);" data-darkreader-inline-fill=""></path>
  <path d="m 114.1,89.3 c 0,0.5 0,0.9 0,1.4 -0.2,6.4 -1.7,12.6 -4.4,18.4 v 0.1 c -1.2,2.6 -4.4,3.7 -6.9,2.4 -0.2,-0.1 -0.4,-0.2 -0.5,-0.3 l -0.7,-0.5 c -1.9,-1.2 -2.5,-3.6 -1.5,-5.6 2.5,-4.9 3.7,-10.4 3.7,-15.9 0,-0.4 0,-0.7 0,-1.1 -0.8,-19.9 -17.5,-35.4 -37.4,-34.8 -3,0.1 -6,0.6 -8.9,1.4 -2.3,0.7 -4.7,0 -6.3,-1.7 v 0 c -1.8,-2 -1.6,-5 0.4,-6.8 0.5,-0.5 1.1,-0.8 1.8,-1 24.5,-7.8 50.8,5.7 58.6,30.1 1.4,4.5 2.2,9.2 2.2,14 z" fill="#004350" id="SvgjsPath1023" style="stroke-width: 1px; --darkreader-inline-fill: var(--darkreader-background-004350, #003640);" data-darkreader-inline-fill=""></path>
  <path d="m 83.9,125.6 c 1.8,2 1.6,5 -0.4,6.8 -0.5,0.5 -1.1,0.8 -1.8,1 -24.5,7.8 -50.8,-5.7 -58.6,-30.1 -1.5,-4.5 -2.2,-9.3 -2.2,-14.1 0,-0.5 0,-0.9 0,-1.4 0.3,-6 1.6,-11.8 3.9,-17.3 1,-2.4 3.8,-3.4 6.2,-2.4 0.6,0.3 1.1,0.6 1.6,1.1 v 0 c 1.7,1.9 2.2,4.6 1.2,6.9 -1.6,4.2 -2.5,8.6 -2.5,13.1 0,0.4 0,0.7 0,1.1 0.6,19.8 17.3,35.4 37.2,34.8 3,-0.1 6,-0.6 8.9,-1.4 2.3,-0.7 4.8,0 6.4,1.8 z" fill="#004350" id="SvgjsPath1022" style="stroke-width: 1px; --darkreader-inline-fill: var(--darkreader-background-004350, #003640);" data-darkreader-inline-fill=""></path>
  <path d="m 98.9,123.5 -0.2,0.2 c -2.1,1.9 -5.3,1.7 -7.2,-0.4 l -0.2,-0.2 c -1.9,-2.1 -1.7,-5.3 0.4,-7.2 l 0.1,-0.1 c 2.1,-1.9 5.3,-1.8 7.3,0.3 l 0.2,0.2 c 1.9,2.1 1.7,5.3 -0.4,7.2 z" fill="#004350" id="SvgjsPath1021" style="stroke-width: 1px; --darkreader-inline-fill: var(--darkreader-text-004350, #cfcbc4);" data-darkreader-inline-fill=""></path>
  <path d="m 43.3,62.6 -0.1,0.1 c -2.1,1.9 -5.3,1.8 -7.3,-0.3 l -0.2,-0.2 c -1.9,-2.1 -1.7,-5.3 0.4,-7.2 l 0.2,-0.2 c 2.1,-1.9 5.3,-1.7 7.2,0.4 l 0.2,0.2 c 1.9,2.1 1.7,5.3 -0.4,7.2 z" fill="#004350" id="SvgjsPath1020" style="stroke-width: 1px; --darkreader-inline-fill: var(--darkreader-text-004350, #cfcbc4);" data-darkreader-inline-fill=""></path>
  <path d="m 92.9,85.6 c -2,-14 -15.1,-23.6 -29.1,-21.6 -0.7,0.1 -1.5,0.2 -2.2,0.4 -2.5,0.6 -4.9,1.5 -7.1,2.8 -3,1.8 -5.7,4.1 -7.8,7 l 0.4,0.5 -0.6,-0.1 c -8.2,11.5 -5.4,27.4 6.1,35.6 4.3,3 9.5,4.7 14.8,4.7 2,0 4,-0.2 5.9,-0.7 2.5,-0.6 4.9,-1.5 7.1,-2.8 3,-1.8 5.7,-4.1 7.8,-7 l -0.4,-0.5 0.6,0.2 c 3.1,-4.3 4.7,-9.5 4.7,-14.7 0,-1.2 -0.1,-2.4 -0.3,-3.7 z m -10.2,3.7 c 0,8.4 -6.8,15.1 -15.2,15.1 -8.4,0 -15.2,-6.8 -15.2,-15.1 0,-2.5 0.6,-4.9 1.8,-7 1,-1.9 2.4,-3.6 4.1,-4.9 2.7,-2.1 5.9,-3.2 9.3,-3.2 5.9,0 11.3,3.4 13.8,8.7 1,2 1.5,4.2 1.5,6.4 z" fill="#64a19d" id="SvgjsPath1019" style="stroke-width: 1px; --darkreader-inline-fill: var(--darkreader-background-64a19d, #4c7d7a);" data-darkreader-inline-fill=""></path>
</svg><style>@media (prefers-color-scheme: light) { :root { filter: none; } }
@media (prefers-color-scheme: dark) { :root { filter: none; } }
</style></svg>